<?xml version="1.0" encoding="UTF-8" standalone="no"?>
<!-- Created with Inkscape (http://www.inkscape.org/) -->

<svg
   width="910.98853"
   height="810"
   viewBox="0 0 241.03235 214.31247"
   version="1.1"
   id="svg1"
   xmlns="http://www.w3.org/2000/svg"
   xmlns:svg="http://www.w3.org/2000/svg">
  <defs
     id="defs1" />
  <g
     id="layer2"
     style="display:none"
     transform="translate(-11.750101,-25.135414)">
    <path
       style="fill:#cc718a;fill-opacity:1;stroke:none;stroke-width:2.64583;stroke-linecap:butt;stroke-linejoin:miter;stroke-dasharray:none;stroke-opacity:1"
       d="M 52.91666,52.91666 H 66.145825 L 26.45833,132.29165 66.145825,211.66664 H 52.91666 L 13.229165,132.29165 Z"
       id="path28" />
    <path
       style="fill:#cc718a;fill-opacity:1;stroke:none;stroke-width:2.64583;stroke-linecap:butt;stroke-linejoin:miter;stroke-dasharray:none;stroke-opacity:1"
       d="m 224.89581,52.91666 h -13.22917 l 26.45833,79.37499 -39.68749,79.37499 h 13.22916 l 39.6875,-79.37499 z"
       id="path29" />
    <path
       d="m 120.64999,79.410131 h -13.22917 v 52.881519 c 0.13229,34.14762 -40.08283,33.33144 -39.687495,0 H 54.50416 c 3.935001,56.98525 66.14583,47.625 66.14583,0 z"
       style="fill:#cc718a;stroke-width:2.64583"
       id="path47" />
    <path
       style="fill:#cc718a;fill-opacity:1;stroke:none;stroke-width:2.64583;stroke-linecap:butt;stroke-linejoin:miter;stroke-dasharray:none;stroke-opacity:1"
       d="m 119.06249,145.52081 -39.6875,92.60416 H 92.604155 L 185.20831,26.45833 h -13.22916 l -39.6875,92.60416"
       id="path33" />
    <path
       d="m 150.81248,105.83332 -40.82954,92.56902 17.01705,0.0351 13.22916,-31.75 h 29.10416 l 10.58334,31.75 h 15.87499 l -29.10416,-92.60416 z m 7.9375,18.52083 7.9375,26.45833 h -21.16666 z"
       style="fill:#cc718a;fill-opacity:1;stroke:none;stroke-width:0.264583px"
       id="path36" />
  </g>
  <g
     id="layer1"
     style="display:none"
     transform="translate(-11.750101,-25.135414)">
    <path
       style="fill:none;fill-opacity:1;stroke:#000000;stroke-width:2.64583;stroke-linecap:butt;stroke-linejoin:miter;stroke-dasharray:none;stroke-opacity:1"
       d="M 52.91666,52.91666 H 66.145825 L 26.45833,132.29165 66.145825,211.66664 H 52.91666 L 13.229165,132.29165 Z"
       id="path1" />
    <path
       style="fill:none;stroke:#000000;stroke-width:2.64583;stroke-linecap:butt;stroke-linejoin:miter;stroke-dasharray:none;stroke-opacity:1"
       d="m 224.89581,52.91666 h -13.22917 l 26.45833,79.37499 -39.68749,79.37499 h 13.22916 l 39.6875,-79.37499 z"
       id="path9" />
    <path
       style="fill:none;fill-opacity:1;stroke:#000000;stroke-width:2.64583;stroke-linecap:butt;stroke-linejoin:miter;stroke-dasharray:none;stroke-opacity:1"
       d="m 119.06249,71.437491 1.58749,60.854159 c -0.33043,44.60449 -61.719597,54.37703 -66.14582,0 h 13.229165 c -0.396344,33.33082 39.075085,33.69272 39.687485,0 l -1.58749,-60.854159 z"
       id="path24" />
    <path
       style="fill:none;stroke:#000000;stroke-width:2.64583;stroke-linecap:butt;stroke-linejoin:miter;stroke-dasharray:none;stroke-opacity:1"
       d="m 109.98272,198.40254 40.82976,-92.56922 h 15.875 l 29.10416,92.60416 h -15.87499 l -10.58334,-31.75 h -29.10416 l -13.22917,31.75 z"
       id="path25" />
    <path
       style="fill:none;stroke:#000000;stroke-width:2.64583;stroke-linecap:butt;stroke-linejoin:miter;stroke-dasharray:none;stroke-opacity:1"
       d="m 158.74998,124.35415 -13.22916,26.45833 h 21.16666 z"
       id="path26" />
    <path
       style="fill:none;stroke:#000000;stroke-width:2.64583;stroke-linecap:butt;stroke-linejoin:miter;stroke-dasharray:none;stroke-opacity:1"
       d="m 79.37499,238.12497 v 0 H 92.604155 L 185.20831,26.45833 H 171.97915 L 79.37499,238.12497"
       id="path27" />
  </g>
  <g
     id="g41"
     style="display:none"
     transform="translate(-11.750101,-25.135414)">
    <path
       style="fill:#cc718a;fill-opacity:1;stroke:none;stroke-width:2.64583;stroke-linecap:butt;stroke-linejoin:miter;stroke-dasharray:none;stroke-opacity:1"
       d="M 52.91666,52.91666 H 66.145825 L 26.45833,132.29165 66.145825,211.66664 H 52.91666 L 13.229165,132.29165 Z"
       id="path37" />
    <path
       style="fill:#cc718a;fill-opacity:1;stroke:none;stroke-width:2.64583;stroke-linecap:butt;stroke-linejoin:miter;stroke-dasharray:none;stroke-opacity:1"
       d="m 224.89581,52.91666 h -13.22917 l 26.45833,79.37499 -39.68749,79.37499 h 13.22916 l 39.6875,-79.37499 z"
       id="path38" />
    <path
       style="fill:#cc718a;fill-opacity:1;stroke:none;stroke-width:2.64583;stroke-linecap:butt;stroke-linejoin:miter;stroke-dasharray:none;stroke-opacity:1"
       d="m 110.54719,69.139244 v 66.145826 c 0,47.625 -62.210816,56.98525 -66.145817,0 h 13.229165 c -0.395335,33.33144 39.819775,34.14762 39.687485,0 V 69.139244 Z"
       id="path39" />
    <path
       style="fill:#cc718a;fill-opacity:1;stroke:none;stroke-width:2.64583;stroke-linecap:butt;stroke-linejoin:miter;stroke-dasharray:none;stroke-opacity:1"
       d="m 119.06249,145.52081 -39.6875,92.60416 H 92.604155 L 185.20831,26.45833 h -13.22916 l -39.6875,92.60416"
       id="path40" />
    <path
       d="m 173.30206,79.375026 -40.82954,92.569014 17.01705,0.0351 13.22916,-31.75 h 29.10416 l 10.58334,31.75 h 15.87499 L 189.17706,79.374986 Z m 7.9375,18.520829 7.9375,26.458325 H 168.0104 Z"
       style="fill:#cc718a;fill-opacity:1;stroke:none;stroke-width:0.264583px"
       id="path41" />
  </g>
  <g
     id="g53"
     style="display:inline;stroke:#fff8f8;stroke-opacity:1"
     transform="translate(-11.750101,-25.135414)">
    <rect
       style="display:none;opacity:1;fill:#d38a9f;fill-opacity:1;stroke:none;stroke-width:2.64583;stroke-dasharray:none;stroke-opacity:1"
       id="rect54"
       width="238.12497"
       height="185.20831"
       x="13.229165"
       y="39.687496" />
    <path
       style="fill:#ffffff;fill-opacity:1;stroke:#000000;stroke-width:2.64583;stroke-linecap:butt;stroke-linejoin:miter;stroke-dasharray:none;stroke-opacity:1"
       d="M 52.91666,52.91666 H 66.145825 L 26.45833,132.29165 66.145825,211.66664 H 52.91666 L 13.229165,132.29165 Z"
       id="path48" />
    <path
       style="fill:#ffffff;fill-opacity:1;stroke:#000000;stroke-width:2.64583;stroke-linecap:butt;stroke-linejoin:miter;stroke-dasharray:none;stroke-opacity:1"
       d="m 224.89581,52.91666 h -13.22917 l 26.45833,79.37499 -39.68749,79.37499 h 13.22916 l 39.6875,-79.37499 z"
       id="path49" />
    <path
       style="fill:#ffffff;fill-opacity:1;stroke:#fff8f8;stroke-width:2.64583;stroke-linecap:butt;stroke-linejoin:miter;stroke-dasharray:none;stroke-opacity:1"
       d="m 119.06249,71.437491 1.58749,60.854159 c -0.33043,44.60449 -61.719597,54.37703 -66.14582,0 h 13.229165 c -0.396344,33.33082 39.075085,33.69272 39.687485,0 l -1.58749,-60.854159 z"
       id="path50" />
    <path
       d="m 150.81248,105.83332 -40.82954,92.56902 17.01705,0.0351 13.22916,-31.75 h 29.10416 l 10.58334,31.75 h 15.87499 l -29.10416,-92.60416 z m 7.9375,18.52083 7.9375,26.45833 h -21.16666 z"
       style="fill:#ffffff;fill-opacity:1;stroke:#ffffff;stroke-width:2.64583"
       id="path55" />
    <path
       style="display:none;fill:#ffffff;fill-opacity:1;stroke:#fff8f8;stroke-width:2.64583;stroke-linecap:butt;stroke-linejoin:miter;stroke-dasharray:none;stroke-opacity:1"
       d="m 79.37499,238.12497 v 0 H 92.604155 L 185.20831,26.45833 H 171.97915 L 79.37499,238.12497"
       id="path53" />
    <path
       style="fill:#ffffff;fill-opacity:1;stroke:#000000;stroke-width:2.64583;stroke-linecap:butt;stroke-linejoin:miter;stroke-dasharray:none;stroke-opacity:1"
       d="M 92.604155,238.12497 H 79.37499 L 171.97915,26.45833 h 13.22916 z"
       id="path54" />
  </g>
</svg>
